<svg xmlns="http://www.w3.org/2000/svg" viewBox="0 0 256 256" width="256" height="256">
  <defs>
    <linearGradient id="bg" x1="0" y1="0" x2="256" y2="256">
      <stop offset="0%" stop-color="#0a0a1a"/>
      <stop offset="100%" stop-color="#0a1628"/>
    </linearGradient>
    <linearGradient id="blue" x1="0" y1="0" x2="256" y2="256">
      <stop offset="0%" stop-color="#0078d4"/>
      <stop offset="100%" stop-color="#005a9e"/>
    </linearGradient>
    <filter id="glow">
      <feGaussianBlur stdDeviation="8" result="blur"/>
      <feMerge><feMergeNode in="blur"/><feMergeNode in="SourceGraphic"/></feMerge>
    </filter>
  </defs>
  <rect width="256" height="256" rx="32" fill="url(#bg)"/>
  <g opacity="0.04" stroke="white" stroke-width="0.5">
    <line x1="0" y1="32" x2="256" y2="32"/><line x1="0" y1="64" x2="256" y2="64"/>
    <line x1="0" y1="96" x2="256" y2="96"/><line x1="0" y1="128" x2="256" y2="128"/>
    <line x1="0" y1="160" x2="256" y2="160"/><line x1="0" y1="192" x2="256" y2="192"/>
    <line x1="0" y1="224" x2="256" y2="224"/><line x1="32" y1="0" x2="32" y2="256"/>
    <line x1="64" y1="0" x2="64" y2="256"/><line x1="96" y1="0" x2="96" y2="256"/>
    <line x1="128" y1="0" x2="128" y2="256"/><line x1="160" y1="0" x2="160" y2="256"/>
    <line x1="192" y1="0" x2="192" y2="256"/><line x1="224" y1="0" x2="224" y2="256"/>
  </g>
  <g filter="url(#glow)">
    <rect x="60" y="60" width="64" height="64" rx="6" fill="url(#blue)" opacity="0.9"/>
    <rect x="132" y="60" width="64" height="64" rx="6" fill="url(#blue)" opacity="0.9"/>
    <rect x="60" y="132" width="64" height="64" rx="6" fill="url(#blue)" opacity="0.9"/>
    <rect x="132" y="132" width="64" height="64" rx="6" fill="url(#blue)" opacity="0.9"/>
  </g>
  <text x="128" y="220" text-anchor="middle" font-family="Segoe UI,system-ui,sans-serif" font-size="18" font-weight="200" letter-spacing="6" fill="rgba(255,255,255,0.3)">RBOWS 1</text>
</svg>
